<svg width="196" height="59" viewBox="0 0 196 59" fill="none" xmlns="http://www.w3.org/2000/svg">
<path d="M70.9424 31.892H67.8641V38.7429H64V20.0283H70.9682C73.1836 20.0283 74.8924 20.521 76.0945 21.5064C77.2967 22.4919 77.8978 23.8843 77.8978 25.6838C77.8978 26.9606 77.6187 28.0274 77.0605 28.8843C76.511 29.7326 75.6738 30.4096 74.5489 30.9152L78.6062 38.563V38.7429H74.4587L70.9424 31.892ZM67.8641 28.7686H70.9811C71.9514 28.7686 72.7027 28.5244 73.2351 28.036C73.7675 27.539 74.0337 26.8578 74.0337 25.9923C74.0337 25.1097 73.7804 24.4156 73.2738 23.91C72.7757 23.4045 72.0072 23.1517 70.9682 23.1517H67.8641V28.7686Z" fill="#F5F8F9"/>
<path d="M87.0169 39C84.9733 39 83.3074 38.3745 82.0194 37.1234C80.74 35.8723 80.1003 34.2057 80.1003 32.1234V31.7635C80.1003 30.3668 80.3708 29.12 80.9117 28.0231C81.4527 26.9177 82.2169 26.0694 83.2044 25.4781C84.2005 24.8783 85.3339 24.5784 86.6048 24.5784C88.511 24.5784 90.0094 25.1782 91.1 26.3779C92.1991 27.5775 92.7486 29.2785 92.7486 31.4807V32.9974H83.8742C83.9944 33.9057 84.355 34.6341 84.9561 35.1825C85.5658 35.7309 86.3343 36.0051 87.2617 36.0051C88.6957 36.0051 89.8162 35.4867 90.6234 34.4499L92.4524 36.4936C91.8943 37.2819 91.1386 37.8989 90.1855 38.3445C89.2323 38.7815 88.1762 39 87.0169 39ZM86.5919 27.5861C85.8534 27.5861 85.2524 27.8346 84.7887 28.3316C84.3336 28.8286 84.0416 29.5398 83.9128 30.4653H89.0907V30.1697C89.0735 29.347 88.8502 28.7129 88.4209 28.2674C87.9915 27.8132 87.3819 27.5861 86.5919 27.5861Z" fill="#F5F8F9"/>
<path d="M99.91 34.2057L102.499 24.8355H106.389L101.688 38.7429H98.1326L93.4313 24.8355H97.3211L99.91 34.2057Z" fill="#F5F8F9"/>
<path d="M107.252 31.6607C107.252 30.2811 107.518 29.0514 108.05 27.9717C108.583 26.892 109.347 26.0566 110.343 25.4653C111.348 24.874 112.511 24.5784 113.834 24.5784C115.714 24.5784 117.247 25.1525 118.432 26.3008C119.625 27.449 120.291 29.0086 120.428 30.9794L120.454 31.9306C120.454 34.0643 119.857 35.7781 118.664 37.072C117.47 38.3573 115.869 39 113.859 39C111.85 39 110.244 38.3573 109.042 37.072C107.849 35.7866 107.252 34.0386 107.252 31.8278V31.6607ZM110.974 31.9306C110.974 33.2502 111.223 34.2614 111.721 34.964C112.219 35.6581 112.932 36.0051 113.859 36.0051C114.761 36.0051 115.465 35.6624 115.972 34.9769C116.478 34.2828 116.732 33.1774 116.732 31.6607C116.732 30.3668 116.478 29.3642 115.972 28.653C115.465 27.9417 114.752 27.5861 113.834 27.5861C112.923 27.5861 112.219 27.9417 111.721 28.653C111.223 29.3556 110.974 30.4482 110.974 31.9306Z" fill="#F5F8F9"/>
<path d="M132.716 33.8329C132.716 33.1045 132.458 32.5476 131.943 32.162C131.428 31.7678 130.501 31.3565 129.161 30.928C127.821 30.491 126.761 30.0626 125.98 29.6427C123.85 28.4944 122.785 26.9477 122.785 25.0026C122.785 23.9914 123.069 23.0917 123.635 22.3033C124.211 21.5064 125.031 20.8852 126.096 20.4396C127.169 19.994 128.371 19.7712 129.702 19.7712C131.042 19.7712 132.235 20.0154 133.283 20.5039C134.33 20.9837 135.142 21.665 135.717 22.5476C136.301 23.4302 136.593 24.4327 136.593 25.5553H132.729C132.729 24.6984 132.458 24.0343 131.917 23.563C131.376 23.0831 130.616 22.8432 129.638 22.8432C128.693 22.8432 127.959 23.0446 127.435 23.4473C126.911 23.8415 126.649 24.3642 126.649 25.0154C126.649 25.6238 126.954 26.1337 127.564 26.545C128.182 26.9563 129.088 27.3419 130.282 27.7018C132.48 28.3616 134.081 29.1799 135.086 30.1568C136.091 31.1337 136.593 32.3505 136.593 33.8072C136.593 35.4267 135.979 36.6992 134.751 37.6247C133.523 38.5416 131.87 39 129.792 39C128.35 39 127.036 38.7386 125.851 38.2159C124.666 37.6847 123.76 36.9606 123.133 36.0437C122.515 35.1268 122.206 34.0643 122.206 32.856H126.083C126.083 34.9212 127.319 35.9537 129.792 35.9537C130.711 35.9537 131.428 35.7695 131.943 35.401C132.458 35.024 132.716 34.5013 132.716 33.8329Z" fill="#F5F8F9"/>
<path d="M142.608 26.3522C143.595 25.1697 144.836 24.5784 146.33 24.5784C149.353 24.5784 150.886 26.3308 150.929 29.8355V38.7429H147.206V29.9383C147.206 29.1414 147.034 28.5544 146.691 28.1774C146.348 27.7918 145.776 27.599 144.978 27.599C143.887 27.599 143.097 28.0189 142.608 28.8586V38.7429H138.886V19H142.608V26.3522Z" fill="#F5F8F9"/>
<path d="M157.665 38.7429H153.93V24.8355H157.665V38.7429ZM153.711 21.2365C153.711 20.6795 153.895 20.2211 154.265 19.8612C154.642 19.5013 155.153 19.3213 155.797 19.3213C156.433 19.3213 156.939 19.5013 157.317 19.8612C157.695 20.2211 157.884 20.6795 157.884 21.2365C157.884 21.8021 157.691 22.2648 157.304 22.6247C156.926 22.9846 156.424 23.1645 155.797 23.1645C155.17 23.1645 154.664 22.9846 154.277 22.6247C153.9 22.2648 153.711 21.8021 153.711 21.2365Z" fill="#F5F8F9"/>
<path d="M167.158 39C165.114 39 163.448 38.3745 162.16 37.1234C160.881 35.8723 160.241 34.2057 160.241 32.1234V31.7635C160.241 30.3668 160.511 29.12 161.052 28.0231C161.593 26.9177 162.358 26.0694 163.345 25.4781C164.341 24.8783 165.475 24.5784 166.745 24.5784C168.652 24.5784 170.15 25.1782 171.241 26.3779C172.34 27.5775 172.889 29.2785 172.889 31.4807V32.9974H164.015C164.135 33.9057 164.496 34.6341 165.097 35.1825C165.706 35.7309 166.475 36.0051 167.402 36.0051C168.836 36.0051 169.957 35.4867 170.764 34.4499L172.593 36.4936C172.035 37.2819 171.279 37.8989 170.326 38.3445C169.373 38.7815 168.317 39 167.158 39ZM166.733 27.5861C165.994 27.5861 165.393 27.8346 164.929 28.3316C164.474 28.8286 164.182 29.5398 164.054 30.4653H169.231V30.1697C169.214 29.347 168.991 28.7129 168.562 28.2674C168.132 27.8132 167.523 27.5861 166.733 27.5861Z" fill="#F5F8F9"/>
<path d="M178.943 38.7429H175.208V19H178.943V38.7429Z" fill="#F5F8F9"/>
<path d="M181.442 31.6864C181.442 29.5184 181.927 27.7918 182.897 26.5064C183.876 25.2211 185.211 24.5784 186.903 24.5784C188.26 24.5784 189.38 25.084 190.265 26.0951V19H194V38.7429H190.638L190.458 37.2648C189.531 38.4216 188.337 39 186.877 39C185.237 39 183.919 38.3573 182.923 37.072C181.936 35.7781 181.442 33.9829 181.442 31.6864ZM185.164 31.9563C185.164 33.2588 185.392 34.2571 185.847 34.9512C186.302 35.6452 186.963 35.9923 187.83 35.9923C188.981 35.9923 189.792 35.5081 190.265 34.5398V29.0514C189.801 28.0831 188.998 27.599 187.856 27.599C186.061 27.599 185.164 29.0514 185.164 31.9563Z" fill="#F5F8F9"/>
<path d="M29.5003 2L5.32092 8.89917V21.0211C5.32092 36.5925 14.5736 50.6167 28.8555 56.742L29.5003 57L30.145 56.742C44.427 50.6167 53.6797 36.5925 53.6797 21.0211V8.89917L29.5003 2Z" fill="#E7E7E7"/>
<path d="M53.6794 8.89917V21.0211C53.6794 36.5925 44.4267 50.6167 30.1447 56.742L29.5 57V2L53.6794 8.89917Z" fill="#D2D2D2"/>
<path d="M29.4999 8.70581L11.7684 13.7674V21.0212C11.7684 32.9495 18.2809 43.8464 28.7263 49.5205L29.5 49.9397L30.2738 49.5205C40.7193 43.8464 47.2316 32.9496 47.2316 21.0212V13.7674L29.4999 8.70581Z" fill="#003959"/>
<path d="M47.2315 13.7674V21.0212C47.2315 32.9495 40.719 43.8464 30.2737 49.5205L29.5 49.9396V8.70581L47.2315 13.7674Z" fill="#003959"/>
<g clip-path="url(#clip0)">
<path d="M16.878 21.4154C17.1165 21.4671 17.3379 21.4634 18.0179 20.9414C18.3198 20.7092 18.7663 20.3188 19.1784 19.7733L19.359 19.5341C20.9028 17.4806 24.517 12.6732 29.7374 12.9348C34.0425 13.2486 37.094 16.4997 38.562 22.3366C38.6122 22.5352 38.6422 22.6566 38.676 22.7506C38.8999 23.7048 39.2766 24.894 39.8185 25.2858C39.9525 25.383 40.1087 25.4293 40.2631 25.4293C40.4984 25.4293 40.7314 25.3202 40.8798 25.1143C41.1171 24.7857 41.0537 24.3312 40.7427 24.0793C40.5927 23.8851 40.3109 23.0729 40.1429 22.3463C40.1331 22.303 40.119 22.2612 40.1018 22.2207C40.0878 22.171 40.0608 22.0627 40.036 21.9658C39.8035 21.0403 39.1851 18.5829 37.6866 16.2715C35.7504 13.2869 33.1101 11.6537 29.8384 11.4179C29.8333 11.4171 29.8278 11.4171 29.8223 11.4171C23.7921 11.1091 19.8337 16.3731 18.1438 18.6205L17.9662 18.8566C17.5036 19.4683 16.9569 19.8491 16.7685 19.9593C16.705 19.9847 16.6433 20.0188 16.586 20.062C16.3495 20.2412 16.2339 20.5468 16.2976 20.8364C16.3615 21.1255 16.5881 21.352 16.878 21.4154Z" fill="#69E5B0"/>
<path d="M35.917 24.3301C36.4903 22.897 36.5048 21.4167 35.9545 20.2688C35.4651 19.2442 34.5511 18.5023 33.3131 18.1231C31.4952 17.5669 29.2919 18.5761 27.2733 20.889C27.2477 20.9173 24.3743 23.9396 21.357 25.7872C21.3349 25.8005 19.126 27.1252 16.8192 27.7541C16.414 27.8639 16.1752 28.2821 16.2854 28.6865C16.3953 29.0916 16.813 29.3309 17.2183 29.2201C19.7274 28.5373 22.0453 27.1473 22.1467 27.0864C25.4199 25.0819 28.3888 21.9235 28.4137 21.8937C29.6395 20.49 31.4529 19.1439 32.8673 19.577C33.7 19.8319 34.2776 20.2855 34.5835 20.9254C34.95 21.6908 34.9214 22.7266 34.5051 23.7663C33.7309 25.7015 31.3192 28.0376 27.7146 30.346C25.9075 31.5034 21.3568 34.3459 18.1422 35.7196C17.756 35.8848 17.5771 36.3305 17.7419 36.717C17.8655 37.0059 18.1461 37.1786 18.4413 37.1786C18.5412 37.1786 18.6425 37.159 18.74 37.1175C22.0584 35.6977 26.6952 32.8044 28.5346 31.6265C31.2721 29.8733 34.7744 27.1846 35.917 24.3301Z" fill="#69E5B0"/>
<path d="M23.6751 18.6554C23.3303 19.0356 23.0208 19.4438 22.6871 19.833C22.2505 20.3434 21.7734 20.8204 21.2749 21.2702C20.7625 21.733 20.3479 22.0637 19.7437 22.4114C19.1025 22.7787 18.449 23.1507 17.7849 23.4744C17.5564 23.5861 17.3598 23.6581 17.1029 23.7354C16.7067 23.8547 16.4605 24.2637 16.5723 24.6705C16.6798 25.0626 17.1106 25.3209 17.5074 25.2019C18.2845 24.9677 18.989 24.5675 19.6903 24.1689C20.2833 23.8321 20.8717 23.5287 21.4161 23.1143C22.4779 22.3073 23.3912 21.3649 24.2314 20.3331C24.5719 19.9154 24.9355 19.5178 25.3157 19.1356C25.523 18.927 25.7375 18.7262 25.9567 18.5293C26.0707 18.4271 26.1866 18.3275 26.304 18.2285C26.3634 18.1788 26.4234 18.1295 26.4841 18.0804C26.4995 18.0674 26.6176 17.9745 26.6476 17.9504C27.177 17.5449 27.7411 17.1844 28.3345 16.8798C28.8951 16.5914 29.4574 16.3902 30.1396 16.2479C30.3656 16.2008 30.4148 16.1958 30.584 16.1786C30.9959 16.1362 31.3445 15.865 31.3445 15.4188C31.3445 15.0361 30.9972 14.6156 30.584 14.6584C27.836 14.9432 25.486 16.6611 23.6751 18.6554Z" fill="#69E5B0"/>
<path d="M17.7602 33.2099C19.4115 32.6432 27.8897 29.4774 32.6376 22.8224C32.8816 22.4807 32.8021 22.0065 32.4607 21.7621C32.1184 21.5184 31.6438 21.5978 31.3998 21.9395C26.9217 28.217 18.8409 31.2313 17.2662 31.7727C17.2326 31.7837 17.2117 31.7911 17.2045 31.7935C16.8119 31.9432 16.6142 32.3813 16.7631 32.7736C16.8782 33.0778 17.1672 33.2642 17.4743 33.2642C17.5602 33.2642 17.648 33.2497 17.7334 33.2191L17.7602 33.2099Z" fill="#69E5B0"/>
<path d="M38.443 37.7346C37.3897 37.3835 36.1002 36.4655 34.8539 35.5778C33.0483 34.291 31.4899 33.181 30.2196 33.3994C29.2648 33.5647 27.5973 34.6306 24.965 36.3649C23.0676 37.616 20.9164 39.0338 19.9808 39.2856C19.5755 39.3956 19.3353 39.8123 19.4444 40.2172C19.5358 40.5571 19.8426 40.7804 20.1782 40.7804C20.2437 40.7804 20.31 40.7717 20.3758 40.7542C21.5488 40.4377 23.6149 39.0758 25.8023 37.6344C27.5689 36.4698 29.7678 35.0203 30.4781 34.8977C31.1235 34.7872 32.703 35.911 33.9721 36.8152C35.3097 37.7679 36.6928 38.7532 37.9623 39.1769C38.3608 39.3092 38.7912 39.0939 38.9239 38.696C39.0565 38.2982 38.8412 37.8674 38.443 37.7346Z" fill="#69E5B0"/>
<path d="M36.5401 41.4581C35.9273 41.2368 34.9315 40.6214 33.9682 40.0265C31.9336 38.7692 30.6406 38.0063 29.7126 38.166C28.7728 38.329 26.7986 39.6701 23.4859 42.0896C23.0801 42.3857 22.73 42.6409 22.487 42.8128C22.1445 43.0556 22.0627 43.5294 22.3045 43.8725C22.4532 44.082 22.6878 44.194 22.9262 44.194C23.0778 44.194 23.2309 44.1487 23.3639 44.055C23.6165 43.8764 23.9711 43.6169 24.382 43.3181C25.7004 42.3552 29.2034 39.7977 29.9636 39.6666C30.4377 39.6341 32.1478 40.6891 33.1694 41.3203C34.2462 41.9852 35.2628 42.6132 36.024 42.8889C36.4182 43.0315 36.8545 42.827 36.9971 42.432C37.1395 42.0361 36.9356 41.601 36.5401 41.4581Z" fill="#69E5B0"/>
<path d="M33.9725 45.2368C33.5457 44.9583 33.1534 44.6776 32.7731 44.4075C31.5272 43.5167 30.4492 42.7475 29.2686 42.9535C27.9384 43.183 25.8207 45.3128 25.4094 45.7364C25.1175 46.0384 25.1255 46.5196 25.427 46.8121C25.5747 46.9538 25.7651 47.0259 25.9551 47.0259C26.1539 47.0259 26.3525 46.9487 26.5013 46.7945C27.5194 45.7432 28.9657 44.5483 29.5266 44.4512C30.0815 44.3561 30.9207 44.9525 31.8906 45.6448C32.2642 45.9118 32.6879 46.2138 33.1421 46.5105C33.4933 46.7396 33.9647 46.6406 34.1943 46.2889C34.4229 45.937 34.3239 45.4667 33.9725 45.2368Z" fill="#69E5B0"/>
<path d="M40.6613 29.5471C40.0277 29.2796 39.3652 28.9981 38.8318 28.5543C38.2448 28.0659 37.9719 27.4248 37.8494 26.6843C37.6908 25.7186 36.2255 26.1295 36.3836 27.0879C36.7087 29.0595 38.1598 30.1273 39.8938 30.8592C40.2755 31.0214 40.7039 30.979 40.9334 30.587C41.1231 30.2645 41.0426 29.7088 40.6613 29.5471Z" fill="#69E5B0"/>
<path d="M39.1859 33.5135C38.6154 33.3373 38.182 33.115 37.578 32.7579C36.4719 32.1043 35.4628 31.1576 34.9721 29.9472C34.8167 29.5638 34.4721 29.2967 34.0371 29.4166C33.6724 29.5168 33.3506 29.9672 33.506 30.352C34.4121 32.5852 36.4915 34.2737 38.7821 34.9796C39.7216 35.2686 40.1202 33.8013 39.1859 33.5135Z" fill="#69E5B0"/>
</g>
<defs>
<clipPath id="clip0">
<rect width="35.6218" height="35.6217" fill="white" transform="translate(10.8342 11.4041)"/>
</clipPath>
</defs>
</svg>
